<svg width="49" height="50" viewBox="0 0 49 50" fill="none" xmlns="http://www.w3.org/2000/svg">
<path fill-rule="evenodd" clip-rule="evenodd" d="M5.10569 0.581055H43.8965C46.5746 0.581055 48.7454 2.78407 48.7454 5.502V44.8696C48.7454 47.5875 46.5746 49.7905 43.8965 49.7905H5.10569C2.42757 49.7905 0.256836 47.5875 0.256836 44.8696V5.502C0.256836 2.78407 2.42757 0.581055 5.10569 0.581055Z" fill="#010101"/>
<path fill-rule="evenodd" clip-rule="evenodd" d="M30.7037 45.8536C32.1791 45.8536 33.3752 44.6495 33.3752 43.1644C33.3752 41.6792 32.1791 40.475 30.7037 40.475H30.3013C31.7767 40.475 32.9728 41.6792 32.9728 43.1644C32.9728 44.6495 31.7767 45.8536 30.3013 45.8536H30.7037Z" fill="#EE1D51"/>
<path fill-rule="evenodd" clip-rule="evenodd" d="M30.2651 40.475H29.8626C28.3872 40.475 27.1909 41.6792 27.1909 43.1644C27.1909 44.6495 28.3872 45.8536 29.8626 45.8536H30.2651C28.7895 45.8536 27.5934 44.6495 27.5934 43.1644C27.5934 41.6792 28.7895 40.475 30.2651 40.475Z" fill="#66C8CF"/>
<path d="M30.2832 44.4725C31.0008 44.4725 31.5825 43.8871 31.5825 43.1649C31.5825 42.4427 31.0008 41.8573 30.2832 41.8573C29.5656 41.8573 28.9839 42.4427 28.9839 43.1649C28.9839 43.8871 29.5656 44.4725 30.2832 44.4725Z" fill="#010101"/>
<path fill-rule="evenodd" clip-rule="evenodd" d="M9.95459 39.2595V40.6226H11.5279V45.8168H13.1019V40.6594H14.3826L14.8217 39.2595H9.95459ZM22.8361 39.2595V40.6226H24.4094V45.8168H25.9834V40.6594H27.264L27.7031 39.2595H22.8361ZM15.1147 40.0331C15.1147 39.606 15.4582 39.2595 15.8826 39.2595C16.3074 39.2595 16.6512 39.606 16.6512 40.0331C16.6512 40.4602 16.3076 40.8067 15.8826 40.8067C15.4582 40.8065 15.1147 40.4602 15.1147 40.0331ZM15.1147 41.3594H16.6512V45.8168H15.1147V41.3594ZM17.3101 39.2595V45.8168H18.8472V44.1224L19.323 43.6799L20.8232 45.8536H22.4699L20.3106 42.6855L22.2501 40.7697H20.3839L18.8472 42.3168V39.2595H17.3101ZM33.8874 39.2595V45.8168H35.4247V44.1224L35.9002 43.6799L37.4009 45.8536H39.0477L36.8884 42.6855L38.828 40.7697H36.9617L35.4247 42.3168V39.2595H33.8874Z" fill="white"/>
<path fill-rule="evenodd" clip-rule="evenodd" d="M31.5159 16.5617C33.6385 18.1008 36.239 19.0064 39.0475 19.0064V13.5243C38.5159 13.5245 37.9858 13.4682 37.4658 13.3564V17.6717C34.6575 17.6717 32.0574 16.766 29.9342 15.2269V26.4142C29.9342 32.0107 25.4616 36.5472 19.9445 36.5472C17.8861 36.5472 15.9728 35.916 14.3833 34.8334C16.1974 36.7148 18.7271 37.882 21.5259 37.882C27.0433 37.882 31.516 33.3455 31.516 27.7488V16.5617H31.5159ZM33.467 11.031C32.3822 9.82886 31.67 8.27522 31.5159 6.55761V5.85254H30.017C30.3942 8.03547 31.6811 9.90051 33.467 11.031ZM17.8727 30.539C17.2667 29.7329 16.9391 28.7467 16.9406 27.7328C16.9406 25.1732 18.9864 23.0979 21.5103 23.0979C21.9807 23.0976 22.4482 23.1708 22.8965 23.315V17.7105C22.3727 17.6376 21.844 17.6068 21.3154 17.6181V21.9805C20.8669 21.8362 20.3991 21.763 19.9286 21.7633C17.4047 21.7633 15.3591 23.8386 15.3591 26.3985C15.3591 28.2084 16.3816 29.7756 17.8727 30.539Z" fill="#EE1D52"/>
<path fill-rule="evenodd" clip-rule="evenodd" d="M29.9342 15.2269C32.0575 16.766 34.6576 17.6717 37.4659 17.6717V13.3564C35.8983 13.0178 34.5106 12.1868 33.4671 11.031C31.6812 9.90051 30.3943 8.03547 30.0171 5.85254H26.08V27.7486C26.0711 30.3012 24.0287 32.368 21.5102 32.368C20.0261 32.368 18.7076 31.6505 17.8726 30.539C16.3815 29.7756 15.359 28.2084 15.359 26.3985C15.359 23.8386 17.4046 21.7633 19.9285 21.7633C20.4121 21.7633 20.8781 21.8397 21.3153 21.9805V17.6181C15.8953 17.7317 11.5361 22.2239 11.5361 27.7488C11.5361 30.5067 12.6217 33.0069 14.3834 34.8336C15.9728 35.9162 17.8862 36.5474 19.9446 36.5474C25.4617 36.5474 29.9342 32.0107 29.9342 26.4144V15.2269Z" fill="white"/>
<path fill-rule="evenodd" clip-rule="evenodd" d="M37.4658 13.3561V12.1893C36.0522 12.1914 34.6665 11.7899 33.4671 11.0305C34.5287 12.2095 35.9267 13.0226 37.4658 13.3561ZM30.017 5.85226C29.981 5.64366 29.9533 5.43366 29.9342 5.22277V4.5177H24.498V26.414C24.4893 28.9664 22.4472 31.0331 19.9285 31.0331C19.1889 31.0331 18.4909 30.8552 17.8726 30.5387C18.7075 31.6502 20.026 32.3677 21.5102 32.3677C24.0285 32.3677 26.071 30.3009 26.0799 27.7483V5.85226H30.017ZM21.3155 17.6179V16.3756C20.8612 16.3126 20.4033 16.2811 19.9448 16.2813C14.4272 16.2813 9.95459 20.818 9.95459 26.414C9.95459 29.9224 11.7124 33.0143 14.3835 34.8331C12.6218 33.0064 11.5363 30.5062 11.5363 27.7483C11.5363 22.2237 15.8952 17.7314 21.3155 17.6179Z" fill="#69C9D0"/>
<path fill-rule="evenodd" clip-rule="evenodd" d="M30.3013 45.8536C31.7767 45.8536 32.973 44.6495 32.973 43.1644C32.973 41.6792 31.7767 40.475 30.3013 40.475H30.2648C28.7894 40.475 27.5933 41.6792 27.5933 43.1644C27.5933 44.6495 28.7894 45.8536 30.2648 45.8536H30.3013ZM28.9839 43.1644C28.9839 42.442 29.5658 41.8568 30.2834 41.8568C31.0005 41.8568 31.5823 42.442 31.5823 43.1644C31.5823 43.8868 31.0005 44.4724 30.2834 44.4724C29.5658 44.4722 28.9839 43.8868 28.9839 43.1644Z" fill="white"/>
</svg>
