<svg width="49" height="50" viewBox="0 0 49 50" fill="none" xmlns="http://www.w3.org/2000/svg">
<ellipse cx="24.3446" cy="25.1858" rx="24.2443" ry="24.6047" fill="url(#paint0_linear_61_184)"/>
<path fill-rule="evenodd" clip-rule="evenodd" d="M19.9027 14.3161C21.0518 14.2624 21.4181 14.2505 24.3451 14.2505C27.272 14.2505 27.6384 14.2634 28.7864 14.3161C29.9345 14.3688 30.7181 14.5547 31.4038 14.8241C32.1218 15.0995 32.7732 15.5299 33.312 16.0866C33.8606 16.6324 34.2837 17.2925 34.5541 18.0222C34.8205 18.7181 35.0027 19.5134 35.0556 20.6766C35.1085 21.8447 35.1203 22.2165 35.1203 25.1859C35.1203 28.1564 35.1076 28.5282 35.0556 29.6943C35.0037 30.8574 34.8205 31.6528 34.5541 32.3486C34.2837 33.0784 33.8599 33.7396 33.312 34.2862C32.7732 34.8429 32.1218 35.2724 31.4038 35.5468C30.7181 35.8172 29.9345 36.0021 28.7884 36.0558C27.6384 36.1094 27.272 36.1214 24.3451 36.1214C21.4181 36.1214 21.0518 36.1084 19.9027 36.0558C18.7566 36.0031 17.973 35.8172 17.2873 35.5468C16.5682 35.2723 15.9167 34.8422 15.3781 34.2862C14.8299 33.7401 14.4057 33.0792 14.135 32.3496C13.8696 31.6537 13.6874 30.8584 13.6345 29.6953C13.5816 28.5272 13.5698 28.1554 13.5698 25.1859C13.5698 22.2155 13.5826 21.8437 13.6345 20.6785C13.6864 19.5134 13.8696 18.7181 14.135 18.0222C14.4061 17.2926 14.8306 16.6317 15.3791 16.0857C15.9169 15.5294 16.5678 15.0989 17.2863 14.8241C17.972 14.5547 18.7556 14.3698 19.9017 14.3161H19.9027ZM28.6992 16.2845C27.5629 16.2318 27.222 16.2209 24.3451 16.2209C21.4681 16.2209 21.1272 16.2318 19.9909 16.2845C18.9398 16.3332 18.3697 16.5111 17.9896 16.6613C17.4871 16.8601 17.1276 17.0957 16.7505 17.4784C16.393 17.8314 16.1179 18.2611 15.9453 18.736C15.7974 19.1217 15.622 19.7003 15.574 20.767C15.5221 21.9202 15.5113 22.2662 15.5113 25.1859C15.5113 28.1057 15.5221 28.4517 15.574 29.6048C15.622 30.6715 15.7974 31.2501 15.9453 31.6359C16.1177 32.1101 16.3929 32.5405 16.7505 32.8934C17.0982 33.2563 17.5224 33.5356 17.9896 33.7106C18.3697 33.8607 18.9398 34.0387 19.9909 34.0874C21.1272 34.1401 21.4671 34.151 24.3451 34.151C27.223 34.151 27.5629 34.1401 28.6992 34.0874C29.7503 34.0387 30.3204 33.8607 30.7005 33.7106C31.203 33.5118 31.5625 33.2762 31.9396 32.8934C32.2972 32.5405 32.5724 32.1101 32.7448 31.6359C32.8928 31.2501 33.0681 30.6715 33.1161 29.6048C33.168 28.4517 33.1788 28.1057 33.1788 25.1859C33.1788 22.2662 33.168 21.9202 33.1161 20.767C33.0681 19.7003 32.8928 19.1217 32.7448 18.736C32.5489 18.226 32.3168 17.8612 31.9396 17.4784C31.5918 17.1156 31.1684 16.8364 30.7005 16.6613C30.3204 16.5111 29.7503 16.3332 28.6992 16.2845ZM22.9688 28.557C23.7374 28.8817 24.5933 28.9256 25.3902 28.681C26.1871 28.4365 26.8757 27.9187 27.3382 27.2162C27.8008 26.5137 28.0087 25.6699 27.9264 24.8291C27.8441 23.9883 27.4767 23.2026 26.887 22.6062C26.5111 22.2249 26.0566 21.9329 25.5561 21.7514C25.0557 21.5698 24.5218 21.503 23.9929 21.556C23.464 21.6089 22.9532 21.7802 22.4974 22.0575C22.0416 22.3348 21.652 22.7113 21.3567 23.1597C21.0614 23.6082 20.8678 24.1175 20.7897 24.651C20.7117 25.1846 20.7512 25.729 20.9053 26.2452C21.0595 26.7614 21.3245 27.2364 21.6813 27.6362C22.0381 28.0359 22.4778 28.3504 22.9688 28.557ZM20.4287 21.2114C20.943 20.6895 21.5536 20.2754 22.2256 19.9929C22.8975 19.7105 23.6177 19.5651 24.3451 19.5651C25.0724 19.5651 25.7926 19.7105 26.4645 19.9929C27.1365 20.2754 27.7471 20.6895 28.2614 21.2114C28.7757 21.7333 29.1836 22.353 29.462 23.0349C29.7403 23.7169 29.8836 24.4478 29.8836 25.1859C29.8836 25.9241 29.7403 26.655 29.462 27.3369C29.1836 28.0189 28.7757 28.6385 28.2614 29.1605C27.2227 30.2146 25.814 30.8068 24.3451 30.8068C22.8762 30.8068 21.4674 30.2146 20.4287 29.1605C19.3901 28.1064 18.8066 26.6767 18.8066 25.1859C18.8066 23.6952 19.3901 22.2655 20.4287 21.2114ZM31.1119 20.4022C31.2393 20.2802 31.3414 20.1334 31.4119 19.9707C31.4825 19.8079 31.5202 19.6325 31.5227 19.4547C31.5253 19.2769 31.4927 19.1004 31.4268 18.9356C31.3609 18.7709 31.2632 18.6212 31.1393 18.4955C31.0154 18.3697 30.8679 18.2705 30.7056 18.2037C30.5432 18.1368 30.3693 18.1037 30.1941 18.1063C30.0189 18.1089 29.846 18.1471 29.6857 18.2188C29.5253 18.2904 29.3807 18.3939 29.2605 18.5233C29.0267 18.7748 28.8987 19.1089 28.9037 19.4547C28.9086 19.8005 29.0462 20.1307 29.2871 20.3752C29.5281 20.6197 29.8534 20.7593 30.1941 20.7643C30.5348 20.7694 30.864 20.6395 31.1119 20.4022Z" fill="white"/>
<defs>
<linearGradient id="paint0_linear_61_184" x1="35.1198" y1="1.94799" x2="10.3278" y2="45.377" gradientUnits="userSpaceOnUse">
<stop stop-color="#405DE6"/>
<stop offset="0.109866" stop-color="#5851DB"/>
<stop offset="0.253313" stop-color="#833AB4"/>
<stop offset="0.389996" stop-color="#C13584"/>
<stop offset="0.510636" stop-color="#E1306C"/>
<stop offset="0.746905" stop-color="#F56040"/>
<stop offset="0.823849" stop-color="#F77737"/>
<stop offset="0.918109" stop-color="#FCAF45"/>
<stop offset="0.999675" stop-color="#FFDC80"/>
</linearGradient>
</defs>
</svg>
