<svg width="49" height="50" viewBox="0 0 49 50" fill="none" xmlns="http://www.w3.org/2000/svg">
<path fill-rule="evenodd" clip-rule="evenodd" d="M48.9834 25.1858C48.9834 38.7738 38.128 49.7905 24.7391 49.7905C11.3502 49.7905 0.494873 38.7738 0.494873 25.1858C0.494873 11.5978 11.3502 0.581055 24.7391 0.581055C38.128 0.581055 48.9834 11.5978 48.9834 25.1858ZM25.6079 18.7455C23.2501 19.7399 18.5366 21.8006 11.4694 24.9254C10.3219 25.3888 9.71982 25.8419 9.66527 26.2848C9.57233 27.0353 10.4977 27.3305 11.7543 27.7303C11.926 27.7857 12.1038 27.8411 12.2857 27.9026C13.5241 28.3106 15.1889 28.7883 16.0536 28.8068C16.8396 28.8232 17.7164 28.4951 18.6841 27.8226C25.2867 23.2974 28.695 21.0112 28.9092 20.962C29.0607 20.9271 29.2708 20.882 29.4122 21.0112C29.5536 21.1383 29.5395 21.3803 29.5254 21.4459C29.4324 21.8416 25.8079 25.2637 23.929 27.0353C23.3431 27.5868 22.9289 27.9784 22.844 28.0687C22.6541 28.2675 22.4602 28.4582 22.2743 28.6407C21.1227 29.7643 20.262 30.6091 22.3228 31.987C23.3128 32.6492 24.1047 33.1967 24.8947 33.7421C25.7574 34.3388 26.6181 34.9334 27.7333 35.6756C28.0162 35.8643 28.2869 36.059 28.5516 36.2497C29.5557 36.9776 30.4588 37.6296 31.574 37.5271C32.2205 37.4656 32.8913 36.8484 33.2307 35.0051C34.0328 30.646 35.6127 21.206 35.9784 17.3143C36.0006 16.9912 35.9871 16.6666 35.938 16.3465C35.9086 16.0881 35.7845 15.8502 35.5905 15.6802C35.3016 15.4403 34.853 15.389 34.651 15.3931C33.7398 15.4095 32.3417 15.9037 25.6079 18.7455Z" fill="#4767FC"/>
</svg>
